<svg xmlns="http://www.w3.org/2000/svg" aria-hidden="true" style="position:absolute;width:0;height:0;overflow:hidden">
  <defs>
    <symbol id="icon-whatsapp" viewBox="0 0 32 32">
      <path d="M27.284 4.651A15.76 15.76 0 0 0 16.067 0C7.327 0 .214 7.112.21 15.856a15.83 15.83 0 0 0 2.117 7.928L.076 32l8.405-2.205a15.848 15.848 0 0 0 7.577 1.931h.007c8.739 0 15.853-7.113 15.857-15.857a15.75 15.75 0 0 0-4.639-11.217zM16.067 29.047h-.005a13.15 13.15 0 0 1-6.708-1.837l-.481-.285-4.988 1.308 1.332-4.864-.313-.499a13.144 13.144 0 0 1-2.015-7.013C2.892 8.59 8.805 2.678 16.074 2.678c3.52 0 6.829 1.373 9.317 3.864a13.105 13.105 0 0 1 3.856 9.324c-.004 7.269-5.916 13.181-13.18 13.181zm7.229-9.871c-.396-.199-2.344-1.157-2.708-1.289-.363-.132-.627-.199-.892.197s-1.023 1.289-1.255 1.555c-.231.264-.463.297-.859.099s-1.673-.616-3.187-1.967c-1.177-1.051-1.973-2.348-2.204-2.745s-.024-.611.173-.808c.179-.177.396-.463.595-.695.2-.229.265-.395.399-.66.132-.264.067-.496-.033-.695-.1-.197-.892-2.148-1.221-2.941-.321-.773-.648-.668-.892-.68a15.295 15.295 0 0 0-.76-.013c-.264 0-.693.099-1.056.496s-1.387 1.356-1.387 3.305c0 1.951 1.42 3.835 1.617 4.099s2.793 4.267 6.768 5.983c.945.408 1.684.652 2.259.835.949.301 1.813.259 2.496.157.761-.113 2.344-.959 2.675-1.884s.331-1.72.231-1.884c-.099-.167-.363-.265-.759-.464z"/>
    </symbol>
    <symbol id="icon-facebook" viewBox="0 0 32 32">
      <path d="M32 16.097c0 7.985-5.859 14.605-13.507 15.807V20.753h3.719l.708-4.613h-4.427v-2.993c0-1.263.619-2.492 2.6-2.492h2.012V6.727s-1.827-.312-3.572-.312c-3.645 0-6.027 2.209-6.027 6.208v3.516H9.454v4.613h4.052v11.151C5.859 30.7-.001 24.082-.001 16.098c0-8.836 7.164-16 16-16s16 7.163 16 16z"/>
    </symbol>
    <symbol id="icon-instagram" viewBox="0 0 32 32">
      <path d="M16 2.883c4.272 0 4.779.016 6.465.093 1.744.08 3.54.477 4.811 1.748 1.283 1.283 1.668 3.061 1.748 4.811.077 1.687.093 2.193.093 6.465s-.016 4.779-.093 6.465c-.079 1.735-.485 3.548-1.748 4.811-1.283 1.283-3.06 1.668-4.811 1.748-1.687.077-2.193.093-6.465.093s-4.779-.016-6.465-.093c-1.721-.079-3.559-.495-4.811-1.748C3.448 26 3.056 24.204 2.976 22.465c-.077-1.687-.093-2.193-.093-6.465s.016-4.779.093-6.465c.079-1.728.489-3.552 1.748-4.811 1.28-1.28 3.065-1.668 4.811-1.748 1.687-.077 2.193-.093 6.465-.093zM16 0c-4.345 0-4.891.019-6.597.096C6.93.209 4.474.897 2.686 2.685.891 4.48.21 6.93.097 9.402.02 11.109.001 11.654.001 15.999s.019 4.891.096 6.597c.113 2.471.804 4.933 2.589 6.717 1.793 1.793 4.248 2.476 6.717 2.589 1.707.077 2.252.096 6.597.096s4.891-.019 6.597-.096c2.472-.113 4.931-.803 6.717-2.589 1.796-1.796 2.476-4.245 2.589-6.717.077-1.707.096-2.252.096-6.597s-.019-4.891-.096-6.597c-.113-2.473-.803-4.931-2.589-6.717C27.523.894 25.062.208 22.597.096 20.89.019 20.345 0 16 0z"/>
      <path d="M16 7.784a8.217 8.217 0 1 0 .001 16.433A8.217 8.217 0 0 0 16 7.784zm0 13.549a5.333 5.333 0 1 1 0-10.667 5.333 5.333 0 0 1 0 10.667zM24.541 9.379a1.92 1.92 0 1 0-.001-3.841 1.92 1.92 0 0 0 .001 3.841z"/>
    </symbol>
    <symbol id="icon-burger-menu" viewBox="0 0 43 32">
      <path d="M40 13.333H2.667a2.667 2.667 0 1 0 0 5.334H40a2.667 2.667 0 1 0 0-5.334zM2.667 6.222H40a2.667 2.667 0 1 0 0-5.334H2.667a2.667 2.667 0 1 0 0 5.334zM40 25.778H2.667a2.667 2.667 0 1 0 0 5.334H40a2.667 2.667 0 1 0 0-5.334z"/>
    </symbol>
  </defs>
</svg>